<?xml version="1.0" ?><svg id="Layer_1" style="enable-background:new 0 0 1024 1024;" version="1.1" viewBox="0 0 1024 1024" xml:space="preserve" xmlns="http://www.w3.org/2000/svg" xmlns:xlink="http://www.w3.org/1999/xlink"><g id="XMLID_217_"><path d="M245.2,289.8c0-117.1,95.3-212.4,212.4-212.4c117.1,0,212.4,95.3,212.4,212.4   c0,117.1-95.3,212.4-212.4,212.4C340.5,502.2,245.2,406.9,245.2,289.8z" id="XMLID_260_"/><path d="M826.7,755.6v159.2c0,17.6-14.3,31.9-31.9,31.9H120.3c-17.6,0-31.9-14.3-31.9-31.9V755.6   c0-59.3,23.1-115.1,65-157.1c42-42,97.7-65.1,157.1-65.2h4l3.5,2c42.3,24.1,90.6,36.9,139.6,36.9c49,0,97.3-12.8,139.6-36.9l3.5-2   h4c59.3,0,115.1,23.2,157.1,65.2C803.6,640.5,826.7,696.3,826.7,755.6z" id="XMLID_235_"/><polygon id="XMLID_335_" points="935.6,385 935.6,425 845.6,425 845.6,515 805.6,515 805.6,425 714.6,425 714.6,385 805.6,385    805.6,294 845.6,294 845.6,385  "/></g><g id="XMLID_1_"/><g id="XMLID_2_"/><g id="XMLID_3_"/><g id="XMLID_4_"/><g id="XMLID_5_"/></svg>