<?xml version="1.0" encoding="iso-8859-1"?>
<!-- Generator: Adobe Illustrator 19.0.0, SVG Export Plug-In . SVG Version: 6.00 Build 0)  -->
<svg version="1.1" id="Capa_1" xmlns="http://www.w3.org/2000/svg" xmlns:xlink="http://www.w3.org/1999/xlink" x="0px" y="0px"
	 viewBox="0 0 512 512" style="enable-background:new 0 0 512 512;" xml:space="preserve">
<g>
	<g>
		<path d="M256,0c-23.159,0-42,18.841-42,42s18.841,42,42,42s42-18.841,42-42S279.159,0,256,0z M256,64c-12.131,0-22-9.869-22-22
			s9.869-22,22-22c12.131,0,22,9.869,22,22S268.131,64,256,64z"/>
	</g>
</g>
<g>
	<g>
		<path d="M470,214c-23.159,0-42,18.841-42,42s18.841,42,42,42s42-18.841,42-42S493.159,214,470,214z M470,278
			c-12.131,0-22-9.869-22-22c0-12.131,9.869-22,22-22c12.131,0,22,9.869,22,22S482.131,278,470,278z"/>
	</g>
</g>
<g>
	<g>
		<path d="M42,214c-23.159,0-42,18.841-42,42s18.841,42,42,42s42-18.841,42-42S65.159,214,42,214z M42,278c-12.131,0-22-9.869-22-22
			c0-12.131,9.869-22,22-22s22,9.869,22,22S54.131,278,42,278z"/>
	</g>
</g>
<g>
	<g>
		<path d="M57.507,175.324c-5.207-1.846-10.921,0.877-12.768,6.082l-0.105,0.3c-1.819,5.215,0.934,10.917,6.149,12.736
			c1.09,0.38,2.202,0.561,3.294,0.561c4.134,0,8.003-2.585,9.441-6.709l0.071-0.202C65.435,182.887,62.712,177.17,57.507,175.324z"
			/>
	</g>
</g>
<g>
	<g>
		<path d="M194.433,50.759c-1.832-5.21-7.542-7.947-12.751-6.116C128.368,63.39,84.412,101.291,57.91,151.365
			c-2.584,4.881-0.721,10.933,4.16,13.517c1.491,0.789,3.092,1.163,4.669,1.163c3.585,0,7.053-1.935,8.847-5.324
			c24.142-45.614,64.177-80.138,112.731-97.211C193.527,61.678,196.265,55.969,194.433,50.759z"/>
	</g>
</g>
<g>
	<g>
		<path d="M467.358,181.683c-18.746-53.314-56.647-97.271-106.723-123.773c-4.884-2.584-10.933-0.719-13.516,4.161
			c-2.584,4.881-0.722,10.932,4.16,13.516c45.615,24.141,80.139,64.176,97.211,112.73c1.446,4.112,5.308,6.686,9.434,6.686
			c1.101,0,2.22-0.184,3.317-0.569C466.451,192.602,469.19,186.894,467.358,181.683z"/>
	</g>
</g>
<g>
	<g>
		<path d="M235.86,292.87c-1.86-1.86-4.43-2.931-7.07-2.931c-2.63,0-5.21,1.07-7.07,2.931c-1.86,1.859-2.93,4.439-2.93,7.069
			c0,2.641,1.07,5.21,2.93,7.08c1.87,1.861,4.44,2.92,7.07,2.92c2.63,0,5.21-1.06,7.07-2.92c1.87-1.87,2.93-4.439,2.93-7.08
			C238.79,297.309,237.73,294.729,235.86,292.87z"/>
	</g>
</g>
<g>
	<g>
		<path d="M290.53,292.87c-1.86-1.86-4.44-2.931-7.07-2.931s-5.21,1.07-7.07,2.931c-1.86,1.859-2.93,4.439-2.93,7.069
			c0,2.641,1.07,5.21,2.93,7.08c1.86,1.861,4.44,2.92,7.07,2.92s5.21-1.06,7.07-2.92c1.86-1.87,2.93-4.45,2.93-7.08
			C293.46,297.309,292.39,294.729,290.53,292.87z"/>
	</g>
</g>
<g>
	<g>
		<path d="M273.235,320.393c-3.905-3.905-10.236-3.905-14.142-0.001c-1.706,1.705-4.481,1.705-6.188,0
			c-3.905-3.904-10.237-3.905-14.142,0.001c-3.904,3.906-3.904,10.237,0.002,14.142c4.752,4.751,10.994,7.127,17.235,7.127
			c6.241,0,12.483-2.376,17.235-7.127C277.14,330.63,277.141,324.299,273.235,320.393z"/>
	</g>
</g>
<g>
	<g>
		<path d="M502,492H390v-36.801c0-27.308-15.89-51.446-39.607-62.736c8.126-5.644,15.766-12.021,22.825-19.08
			c31.354-31.354,48.621-73.041,48.621-117.383c0-44.342-17.267-86.029-48.621-117.383s-73.042-48.622-117.383-48.622
			s-86.029,17.268-117.382,48.622C107.097,169.971,89.83,211.658,89.83,256s17.267,86.029,48.621,117.383
			c7.096,7.096,14.776,13.506,22.95,19.172C137.797,403.887,122,427.968,122,455.198V492H10.262c-5.523,0-10,4.478-10,10
			c0,5.522,4.477,10,10,10H132h248h122c5.523,0,10-4.478,10-10C512,496.478,507.523,492,502,492z M359.075,359.239
			c-10.1,10.102-21.532,18.625-33.976,25.336c-0.351,0.189-0.682,0.401-1,0.625l-20.025-3.702c-6.889-1.274-11.89-7.284-11.89-14.29
			v-0.446c8.92-5.003,16.707-11.79,22.871-19.882h15.449c11.549,0,22.711,2.734,32.787,7.954
			C361.917,356.325,360.517,357.797,359.075,359.239z M256,356.215c-29.894,0-54.214-24.32-54.214-54.214v-17.274h21.396
			c21.023,0,40.97-8.131,55.912-22.561l31.12,18.283v21.552C310.214,331.895,285.894,356.215,256,356.215z M268.266,375.183
			l-12.139,12.139l-12.084-12.084c3.895,0.634,7.886,0.977,11.957,0.977C260.18,376.215,264.273,375.85,268.266,375.183z
			 M375.993,338.994c-13.799-7.939-29.352-12.113-45.489-12.113h-4.593c2.778-7.782,4.303-16.155,4.303-24.88v-27.274V266h71.281
			C399.719,292.428,390.918,317.483,375.993,338.994z M359.075,152.76c1.442,1.442,2.843,2.915,4.217,4.406
			c-4.529,2.346-9.276,4.19-14.181,5.507c-2.536-10.09-6.671-19.552-12.124-28.096C344.839,139.849,352.237,145.922,359.075,152.76z
			 M266,110.749c30.176,3.986,54.812,25.733,63.04,54.37H266V110.749z M330.508,185.119c0.49,0,0.978-0.02,1.467-0.028
			c0.004,0.327,0.025,0.651,0.025,0.979v33.195c0,5.522,4.477,10,10,10s10-4.478,10-10V186.07c0-1.163-0.028-2.319-0.07-3.472
			c8.422-2.018,16.504-5.242,24.063-9.591c14.925,21.511,23.726,46.565,25.502,72.993h-72.492
			c-6.126-33.787-35.187-59.669-70.424-60.881H330.508z M256,205.053c29.211,0,53.101,23.225,54.177,52.178l-27.854-16.364
			c-4.212-2.476-9.593-1.544-12.73,2.199c-11.536,13.766-28.452,21.66-46.411,21.66h-21.396v-2.619v-2.84
			C201.786,229.373,226.106,205.053,256,205.053z M246,110.749v54.37h-63.04C191.188,136.482,215.824,114.735,246,110.749z
			 M152.593,152.759c7.005-7.004,14.598-13.205,22.664-18.565c-5.573,8.644-9.794,18.237-12.368,28.477
			c-4.985-1.339-9.807-3.223-14.402-5.625C149.826,155.596,151.189,154.163,152.593,152.759z M135.771,172.868
			c7.627,4.419,15.79,7.69,24.299,9.729c-0.041,1.154-0.07,2.31-0.07,3.474v33.195c0,5.522,4.477,10,10,10s10-4.478,10-10V186.07
			c0-0.328,0.021-0.652,0.025-0.979c0.492,0.008,0.982,0.028,1.475,0.028h71.921c-35.237,1.212-64.298,27.094-70.424,60.881h-72.824
			C111.953,219.516,120.787,194.41,135.771,172.868z M135.769,339.131c-14.982-21.542-23.816-46.647-25.596-73.131h71.612v8.727
			v27.274c0,8.725,1.525,17.097,4.303,24.88h-4.593C165.265,326.881,149.626,331.103,135.769,339.131z M152.594,359.24
			c-1.404-1.404-2.768-2.837-4.107-4.287c10.133-5.296,21.375-8.072,33.009-8.072h15.449c6.161,8.087,13.942,14.87,22.856,19.873
			v0.455c0,7.006-5,13.015-11.89,14.289l-20.314,3.757c-0.372-0.274-0.759-0.534-1.176-0.76
			C174.035,377.797,162.654,369.3,152.594,359.24z M227.625,484.718l6.401,7.282H142v-36.802c0-23.857,17.027-44.322,40.488-48.66
			l29.06-5.374c7.693-1.422,14.394-5.33,19.337-10.8l13.453,13.453l-18.873,71.755C224.618,478.791,225.428,482.218,227.625,484.718
			z M256.13,486.852l-9.97-11.341l9.964-37.883l9.969,37.885L256.13,486.852z M370.001,492H278.23l6.401-7.284
			c2.196-2.499,3.005-5.928,2.159-9.146l-18.879-71.748l13.319-13.319c4.931,5.396,11.581,9.25,19.208,10.66l29.074,5.375
			c23.461,4.337,40.489,24.802,40.489,48.66V492z"/>
	</g>
</g>
<g>
	<g>
		<path d="M330.43,44.651c-5.207-1.846-10.921,0.877-12.768,6.082l-0.105,0.3c-1.818,5.215,0.935,10.917,6.149,12.736
			c1.09,0.38,2.202,0.561,3.294,0.561c4.134,0,8.003-2.585,9.441-6.709l0.071-0.202C338.358,52.214,335.635,46.497,330.43,44.651z"
			/>
	</g>
</g>
<g>
</g>
<g>
</g>
<g>
</g>
<g>
</g>
<g>
</g>
<g>
</g>
<g>
</g>
<g>
</g>
<g>
</g>
<g>
</g>
<g>
</g>
<g>
</g>
<g>
</g>
<g>
</g>
<g>
</g>
</svg>
